<svg xmlns="http://www.w3.org/2000/svg" xmlns:xlink="http://www.w3.org/1999/xlink" width="500" zoomAndPan="magnify" viewBox="0 0 375 374.999991" height="500" preserveAspectRatio="xMidYMid meet" version="1.2"><defs><clipPath id="f6317b9cd9"><path d="M 52.226562 37.5 L 322.976562 37.5 L 322.976562 337.40625 L 52.226562 337.40625 Z M 52.226562 37.5 "/></clipPath></defs><g id="7b3c269589"><g clip-rule="nonzero" clip-path="url(#f6317b9cd9)"><path style=" stroke:none;fill-rule:evenodd;fill:#000080;fill-opacity:1;" d="M 322.445312 337.414062 L 299.535156 314.507812 L 297.972656 312.941406 L 273.09375 288.0625 L 197.121094 212.09375 L 299.535156 109.699219 L 320.257812 88.984375 L 192.554688 88.984375 L 189.003906 92.53125 L 147 134.527344 L 147 168.855469 L 202.617188 113.253906 L 261.660156 113.253906 L 171.375 203.511719 L 162.785156 212.082031 L 171.375 220.675781 L 263.523438 312.820312 L 135.703125 312.941406 L 135.703125 37.40625 L 115.660156 54.734375 L 56.636719 105.730469 L 52.414062 109.375 L 52.414062 263.449219 L 73.132812 242.730469 L 100.132812 215.726562 L 100.132812 181.394531 L 76.6875 204.847656 L 76.6875 120.375 L 111.4375 90.351562 L 111.4375 337.414062 L 123.71875 337.273438 Z M 322.445312 337.414062 "/></g></g></svg>